<svg width="45" height="45" viewBox="0 0 45 45" fill="none" xmlns="http://www.w3.org/2000/svg">
<path d="M44.4 43.5C43 43.8667 41.75 44.05 40.65 44.05C39.5833 44.05 38.6333 43.9833 37.8 43.85C36.9667 43.7167 36.0667 43.45 35.1 43.05C34.1667 42.6833 33.2833 42.25 32.45 41.75C31.6167 41.25 30.7833 40.6333 29.95 39.9C28.4167 38.6667 27.0167 37.3333 25.75 35.9C24.5167 34.4667 22.1167 31.7833 18.55 27.85C14.9833 23.8833 12.6167 21.25 11.45 19.95C10.2833 18.65 9.38333 17.9667 8.75 17.9V17.4C10.6833 17.4 11.9667 17.3667 12.6 17.3C13.2667 17.2 13.9667 17.05 14.7 16.85C15.4333 16.6167 16.05 16.3167 16.55 15.95C18.5167 14.6833 19.5 12.5833 19.5 9.65C19.5 7.21666 18.95 5.26667 17.85 3.8C16.7833 2.33333 15.2667 1.58333 13.3 1.55H7.1V31.35C7.1 32.1833 7.4 32.9167 8 33.55C8.63333 34.1833 9.4 34.5 10.3 34.5H10.9L10.95 35H1.19209e-07V34.5H0.65C1.48333 34.5 2.21667 34.2 2.85 33.6C3.48333 33 3.81667 32.2667 3.85 31.4V3.65C3.81667 2.78333 3.48333 2.05 2.85 1.45C2.25 0.816665 1.51667 0.499997 0.65 0.499997H1.19209e-07V-2.38419e-06H13.5C16.4333 -2.38419e-06 18.7833 0.833331 20.55 2.5C22.35 4.13333 23.25 6.31667 23.25 9.05C23.25 11.75 22.4333 14.0833 20.8 16.05C19.1667 17.9833 17.1667 18.95 14.8 18.95C14.8 18.95 14.7833 18.95 14.75 18.95C15.8833 20.15 17.1667 21.55 18.6 23.15C24.3667 29.5167 28.0667 33.5167 29.7 35.15C31.3333 36.7833 32.7667 38.1167 34 39.15C35.2667 40.2167 36.3833 41 37.35 41.5C39.3167 42.5667 41.2667 43.1 43.2 43.1C43.6 43.1 44 43.0667 44.4 43V43.5Z" fill="#E91E63"/>
</svg>
