<svg width="277" height="51" viewBox="0 0 277 51" fill="none" xmlns="http://www.w3.org/2000/svg">
<path d="M44.4 49.5C43 49.8667 41.75 50.05 40.65 50.05C39.5833 50.05 38.6333 49.9833 37.8 49.85C36.9667 49.7167 36.0667 49.45 35.1 49.05C34.1667 48.6833 33.2833 48.25 32.45 47.75C31.6167 47.25 30.7833 46.6333 29.95 45.9C28.4167 44.6667 27.0167 43.3333 25.75 41.9C24.5167 40.4667 22.1167 37.7833 18.55 33.85C14.9833 29.8833 12.6167 27.25 11.45 25.95C10.2833 24.65 9.38333 23.9667 8.75 23.9V23.4C10.6833 23.4 11.9667 23.3667 12.6 23.3C13.2667 23.2 13.9667 23.05 14.7 22.85C15.4333 22.6167 16.05 22.3167 16.55 21.95C18.5167 20.6833 19.5 18.5833 19.5 15.65C19.5 13.2167 18.95 11.2667 17.85 9.8C16.7833 8.33333 15.2667 7.58333 13.3 7.55H7.1V37.35C7.1 38.1833 7.4 38.9167 8 39.55C8.63333 40.1833 9.4 40.5 10.3 40.5H10.9L10.95 41H1.19209e-07V40.5H0.65C1.48333 40.5 2.21667 40.2 2.85 39.6C3.48333 39 3.81667 38.2667 3.85 37.4V9.65C3.81667 8.78333 3.48333 8.05 2.85 7.45C2.25 6.81666 1.51667 6.5 0.65 6.5H1.19209e-07V6H13.5C16.4333 6 18.7833 6.83333 20.55 8.5C22.35 10.1333 23.25 12.3167 23.25 15.05C23.25 17.75 22.4333 20.0833 20.8 22.05C19.1667 23.9833 17.1667 24.95 14.8 24.95C14.8 24.95 14.7833 24.95 14.75 24.95C15.8833 26.15 17.1667 27.55 18.6 29.15C24.3667 35.5167 28.0667 39.5167 29.7 41.15C31.3333 42.7833 32.7667 44.1167 34 45.15C35.2667 46.2167 36.3833 47 37.35 47.5C39.3167 48.5667 41.2667 49.1 43.2 49.1C43.6 49.1 44 49.0667 44.4 49V49.5ZM35.4972 16.48C38.3505 13.7867 42.0439 12.44 46.5772 12.44C51.1372 12.44 54.8439 13.7867 57.6972 16.48C60.5505 19.1467 61.9772 22.6533 61.9772 27C61.9772 31.3467 60.5505 34.8667 57.6972 37.56C54.8439 40.2267 51.1372 41.56 46.5772 41.56C42.0439 41.56 38.3505 40.2267 35.4972 37.56C32.6439 34.8667 31.2172 31.3467 31.2172 27C31.2172 22.6533 32.6439 19.1467 35.4972 16.48ZM37.6572 36.68C39.9239 39.1333 42.8972 40.36 46.5772 40.36C50.2572 40.36 53.2172 39.1333 55.4572 36.68C57.7239 34.2267 58.8572 31 58.8572 27C58.8572 23 57.7239 19.7733 55.4572 17.32C53.2172 14.8667 50.2572 13.64 46.5772 13.64C42.8972 13.64 39.9239 14.8667 37.6572 17.32C35.4172 19.7733 34.2972 23 34.2972 27C34.2972 31 35.4172 34.2267 37.6572 36.68ZM65.9634 39.36C65.8834 38.9867 65.8434 38.2667 65.8434 37.2C65.8434 36.1333 66.0434 35 66.4434 33.8H66.8034C66.7768 34.0933 66.7634 34.3867 66.7634 34.68C66.7634 36.3067 67.2568 37.6667 68.2434 38.76C69.2301 39.8267 70.5368 40.36 72.1634 40.36C73.8434 40.36 75.2168 39.8533 76.2834 38.84C77.3768 37.8267 77.9234 36.56 77.9234 35.04C77.9234 33.4933 77.4034 32.24 76.3634 31.28L68.6834 24.16C67.2434 22.8267 66.5234 21.2133 66.5234 19.32C66.5234 17.4267 67.1501 15.8133 68.4034 14.48C69.6834 13.12 71.4034 12.44 73.5634 12.44C74.5768 12.44 75.7234 12.5733 77.0034 12.84H78.5634V17.76H78.2034C78.2034 16.5067 77.7634 15.5067 76.8834 14.76C76.0301 14.0133 74.9234 13.64 73.5634 13.64C72.2034 13.64 71.0568 14.0933 70.1234 15C69.2168 15.9067 68.7634 17.04 68.7634 18.4C68.7634 19.76 69.2968 20.9333 70.3634 21.92L78.2434 29.2C79.5768 30.4267 80.2434 32.1067 80.2434 34.24C80.2434 36.3733 79.5634 38.1333 78.2034 39.52C76.8434 40.88 75.0301 41.56 72.7634 41.56C71.5901 41.56 70.3368 41.3733 69.0034 41C67.6968 40.6533 66.6834 40.1067 65.9634 39.36ZM111.187 40.6H111.507V41H102.507V40.6H102.867C103.427 40.6 103.84 40.4267 104.107 40.08C104.4 39.7067 104.547 39.36 104.547 39.04C104.547 38.72 104.494 38.4 104.387 38.08L101.827 31.28H91.0269L88.3469 38.12C88.2402 38.44 88.1869 38.76 88.1869 39.08C88.1869 39.3733 88.3202 39.7067 88.5869 40.08C88.8802 40.4267 89.3069 40.6 89.8669 40.6H90.2269V41H82.1869V40.6H82.5469C83.2135 40.6 83.8669 40.3867 84.5069 39.96C85.1469 39.5333 85.6669 38.9067 86.0669 38.08L95.1069 16.56C96.0935 14.4 96.5869 13.0267 96.5869 12.44H96.9469L107.667 38.08C108.04 38.9067 108.547 39.5333 109.187 39.96C109.827 40.3867 110.494 40.6 111.187 40.6ZM91.5069 30.08H101.347L96.5469 17.24L91.5069 30.08ZM176.023 49.1C176.223 49.1 176.423 49.1 176.623 49.1V49.6C175.69 49.7333 174.64 49.8 173.473 49.8C172.34 49.8 170.923 49.55 169.223 49.05C167.557 48.55 166.04 47.6167 164.673 46.25C161.873 43.45 160.173 39.8167 159.573 35.35L156.523 13.1L146.123 36.6C145.19 38.6333 144.623 40.3333 144.423 41.7H143.923L130.973 13.55L128.773 38.4C128.707 38.9667 128.873 39.4667 129.273 39.9C129.707 40.3333 130.173 40.55 130.673 40.55H131.473V41H121.773V40.5H122.573C123.473 40.5 124.257 40.2333 124.923 39.7C125.623 39.1333 126.057 38.4 126.223 37.5L129.373 10.2C126.44 4.43333 122.923 1.55 118.823 1.55C118.457 1.55 118.073 1.56666 117.673 1.6V1.1C118.573 0.866664 119.307 0.749997 119.873 0.749997C120.44 0.749997 121.057 0.783331 121.723 0.849998C122.39 0.883331 123.173 1.03333 124.073 1.3C124.973 1.56667 125.823 1.96667 126.623 2.5C127.423 3 128.123 3.53333 128.723 4.1C129.323 4.63333 129.89 5.23333 130.423 5.9C131.323 7.1 132.04 8.25 132.573 9.35L144.623 35.45L158.073 5.3H158.523L163.173 34.9C163.873 39.5667 165.373 43.1 167.673 45.5C170.007 47.9 172.79 49.1 176.023 49.1ZM173.437 16.48C176.29 13.7867 179.983 12.44 184.517 12.44C189.077 12.44 192.783 13.7867 195.637 16.48C198.49 19.1467 199.917 22.6533 199.917 27C199.917 31.3467 198.49 34.8667 195.637 37.56C192.783 40.2267 189.077 41.56 184.517 41.56C179.983 41.56 176.29 40.2267 173.437 37.56C170.583 34.8667 169.157 31.3467 169.157 27C169.157 22.6533 170.583 19.1467 173.437 16.48ZM175.597 36.68C177.863 39.1333 180.837 40.36 184.517 40.36C188.197 40.36 191.157 39.1333 193.397 36.68C195.663 34.2267 196.797 31 196.797 27C196.797 23 195.663 19.7733 193.397 17.32C191.157 14.8667 188.197 13.64 184.517 13.64C180.837 13.64 177.863 14.8667 175.597 17.32C173.357 19.7733 172.237 23 172.237 27C172.237 31 173.357 34.2267 175.597 36.68ZM216.642 13C220.908 13 224.362 14.2933 227.002 16.88C229.668 19.44 231.002 22.8133 231.002 27C231.002 31.1867 229.668 34.5733 227.002 37.16C224.362 39.72 220.908 41 216.642 41H203.082V40.6H203.602C204.295 40.6 204.882 40.36 205.362 39.88C205.868 39.3733 206.135 38.7733 206.162 38.08V15.68C206.162 15.04 205.895 14.5067 205.362 14.08C204.855 13.6267 204.268 13.4 203.602 13.4H203.122L203.082 13H216.642ZM208.762 14.2V39.8H216.642C218.882 39.8 220.855 39.2667 222.562 38.2C224.295 37.1333 225.628 35.64 226.562 33.72C227.522 31.7733 228.002 29.5333 228.002 27C228.002 23.16 226.948 20.0667 224.842 17.72C222.762 15.3733 220.028 14.2 216.642 14.2H208.762ZM260.181 40.6H260.501V41H251.501V40.6H251.861C252.421 40.6 252.834 40.4267 253.101 40.08C253.394 39.7067 253.541 39.36 253.541 39.04C253.541 38.72 253.488 38.4 253.381 38.08L250.821 31.28H240.021L237.341 38.12C237.234 38.44 237.181 38.76 237.181 39.08C237.181 39.3733 237.314 39.7067 237.581 40.08C237.874 40.4267 238.301 40.6 238.861 40.6H239.221V41H231.181V40.6H231.541C232.208 40.6 232.861 40.3867 233.501 39.96C234.141 39.5333 234.661 38.9067 235.061 38.08L244.101 16.56C245.088 14.4 245.581 13.0267 245.581 12.44H245.941L256.661 38.08C257.034 38.9067 257.541 39.5333 258.181 39.96C258.821 40.3867 259.488 40.6 260.181 40.6ZM240.501 30.08H250.341L245.541 17.24L240.501 30.08ZM262.458 39.36C262.378 38.9867 262.338 38.2667 262.338 37.2C262.338 36.1333 262.538 35 262.938 33.8H263.298C263.271 34.0933 263.258 34.3867 263.258 34.68C263.258 36.3067 263.751 37.6667 264.738 38.76C265.724 39.8267 267.031 40.36 268.658 40.36C270.338 40.36 271.711 39.8533 272.778 38.84C273.871 37.8267 274.418 36.56 274.418 35.04C274.418 33.4933 273.898 32.24 272.858 31.28L265.178 24.16C263.738 22.8267 263.018 21.2133 263.018 19.32C263.018 17.4267 263.644 15.8133 264.898 14.48C266.178 13.12 267.898 12.44 270.058 12.44C271.071 12.44 272.218 12.5733 273.498 12.84H275.058V17.76H274.698C274.698 16.5067 274.258 15.5067 273.378 14.76C272.524 14.0133 271.418 13.64 270.058 13.64C268.698 13.64 267.551 14.0933 266.618 15C265.711 15.9067 265.258 17.04 265.258 18.4C265.258 19.76 265.791 20.9333 266.858 21.92L274.738 29.2C276.071 30.4267 276.738 32.1067 276.738 34.24C276.738 36.3733 276.058 38.1333 274.698 39.52C273.338 40.88 271.524 41.56 269.258 41.56C268.084 41.56 266.831 41.3733 265.498 41C264.191 40.6533 263.178 40.1067 262.458 39.36Z" fill="#E91E63"/>
</svg>
